<svg width="20" height="23" viewBox="0 0 20 23" fill="none" xmlns="http://www.w3.org/2000/svg">
<g clip-path="url(#clip0_5_22)">
<path d="M17.8571 1.42859H2.14286C1.57454 1.42859 1.02949 1.65435 0.627628 2.05622C0.225765 2.45808 0 3.00312 0 3.57145L0 19.2857C0 19.8541 0.225765 20.3991 0.627628 20.801C1.02949 21.2028 1.57454 21.4286 2.14286 21.4286H8.27009V14.629H5.45759V11.4286H8.27009V8.9893C8.27009 6.21475 9.92188 4.68216 12.4518 4.68216C13.6634 4.68216 14.9304 4.89823 14.9304 4.89823V7.62145H13.5344C12.1589 7.62145 11.7299 8.47502 11.7299 9.35046V11.4286H14.8004L14.3094 14.629H11.7299V21.4286H17.8571C18.4255 21.4286 18.9705 21.2028 19.3724 20.801C19.7742 20.3991 20 19.8541 20 19.2857V3.57145C20 3.00312 19.7742 2.45808 19.3724 2.05622C18.9705 1.65435 18.4255 1.42859 17.8571 1.42859Z" fill="white"/>
</g>
<defs>
<clipPath id="clip0_5_22">
<rect width="20" height="22.8571" fill="white"/>
</clipPath>
</defs>
</svg>
