<svg width="20" height="23" viewBox="0 0 20 23" fill="none" xmlns="http://www.w3.org/2000/svg">
<g clip-path="url(#clip0_5_20)">
<path d="M10.0045 6.29466C7.16517 6.29466 4.87499 8.58484 4.87499 11.4241C4.87499 14.2634 7.16517 16.5536 10.0045 16.5536C12.8437 16.5536 15.1339 14.2634 15.1339 11.4241C15.1339 8.58484 12.8437 6.29466 10.0045 6.29466ZM10.0045 14.7589C8.16964 14.7589 6.66964 13.2634 6.66964 11.4241C6.66964 9.58484 8.16517 8.0893 10.0045 8.0893C11.8437 8.0893 13.3393 9.58484 13.3393 11.4241C13.3393 13.2634 11.8393 14.7589 10.0045 14.7589ZM16.5402 6.08484C16.5402 6.75002 16.0045 7.28127 15.3437 7.28127C14.6786 7.28127 14.1473 6.74555 14.1473 6.08484C14.1473 5.42412 14.683 4.88841 15.3437 4.88841C16.0045 4.88841 16.5402 5.42412 16.5402 6.08484ZM19.9375 7.29912C19.8616 5.69645 19.4955 4.2768 18.3214 3.10716C17.1518 1.93752 15.7321 1.57145 14.1295 1.49109C12.4777 1.39734 7.52678 1.39734 5.87499 1.49109C4.27678 1.56698 2.85714 1.93305 1.68303 3.1027C0.508925 4.27234 0.147318 5.69198 0.0669613 7.29466C-0.0267887 8.94645 -0.0267887 13.8973 0.0669613 15.5491C0.142854 17.1518 0.508925 18.5714 1.68303 19.7411C2.85714 20.9107 4.27232 21.2768 5.87499 21.3572C7.52678 21.4509 12.4777 21.4509 14.1295 21.3572C15.7321 21.2813 17.1518 20.9152 18.3214 19.7411C19.4911 18.5714 19.8571 17.1518 19.9375 15.5491C20.0312 13.8973 20.0312 8.95091 19.9375 7.29912ZM17.8036 17.3214C17.4553 18.1964 16.7812 18.8706 15.9018 19.2232C14.5848 19.7456 11.4598 19.625 10.0045 19.625C8.5491 19.625 5.41964 19.7411 4.10714 19.2232C3.23214 18.875 2.55803 18.2009 2.20535 17.3214C1.68303 16.0045 1.80357 12.8795 1.80357 11.4241C1.80357 9.96877 1.6875 6.8393 2.20535 5.5268C2.55357 4.6518 3.22767 3.9777 4.10714 3.62502C5.4241 3.1027 8.5491 3.22323 10.0045 3.22323C11.4598 3.22323 14.5893 3.10716 15.9018 3.62502C16.7768 3.97323 17.4509 4.64734 17.8036 5.5268C18.3259 6.84377 18.2053 9.96877 18.2053 11.4241C18.2053 12.8795 18.3259 16.0089 17.8036 17.3214Z" fill="white"/>
</g>
<defs>
<clipPath id="clip0_5_20">
<rect width="20" height="22.8571" fill="white"/>
</clipPath>
</defs>
</svg>
