<svg width="20" height="23" viewBox="0 0 20 23" fill="none" xmlns="http://www.w3.org/2000/svg">
<path d="M10 5.48216C6.75446 5.48216 4.11607 8.12055 4.11161 11.3661C4.11161 12.4777 4.42411 13.5625 5.01339 14.4956L5.15179 14.7188L4.55804 16.8884L6.78571 16.3036L7 16.4331C7.90179 16.9688 8.9375 17.2545 9.99554 17.2545H10C13.2411 17.2545 15.9509 14.6161 15.9509 11.3706C15.9509 9.79912 15.2723 8.32145 14.1607 7.20984C13.0446 6.09377 11.5714 5.48216 10 5.48216ZM13.4598 13.8929C13.3125 14.3081 12.6071 14.6831 12.2679 14.7322C11.7054 14.817 11.2679 14.7723 10.1473 14.2902C8.375 13.5223 7.21429 11.7366 7.125 11.6206C7.03571 11.5045 6.40179 10.6607 6.40179 9.7902C6.40179 8.91966 6.85714 8.49109 7.02232 8.31252C7.18304 8.13395 7.375 8.0893 7.49554 8.0893C7.61161 8.0893 7.73214 8.0893 7.83482 8.09377C7.94196 8.09823 8.08929 8.05359 8.23214 8.39734C8.37946 8.75002 8.73214 9.62055 8.77679 9.70984C8.82143 9.79912 8.85268 9.9018 8.79018 10.0179C8.45089 10.6964 8.08929 10.6697 8.27232 10.9822C8.95536 12.1563 9.63839 12.5625 10.6786 13.0848C10.8571 13.1741 10.9598 13.1607 11.0625 13.0402C11.1652 12.9241 11.5045 12.5223 11.6205 12.3482C11.7366 12.1697 11.8571 12.2009 12.0179 12.2589C12.1786 12.317 13.0491 12.7456 13.2277 12.8348C13.4062 12.9241 13.5223 12.9688 13.567 13.0402C13.6071 13.125 13.6071 13.4822 13.4598 13.8929ZM17.8571 1.42859H2.14286C0.959821 1.42859 0 2.38841 0 3.57145V19.2857C0 20.4688 0.959821 21.4286 2.14286 21.4286H17.8571C19.0402 21.4286 20 20.4688 20 19.2857V3.57145C20 2.38841 19.0402 1.42859 17.8571 1.42859ZM9.99554 18.4464C8.80804 18.4464 7.64286 18.1473 6.61161 17.5848L2.85714 18.5714L3.86161 14.9018C3.24107 13.8304 2.91518 12.6116 2.91518 11.3616C2.91964 7.45984 6.09375 4.28573 9.99554 4.28573C11.8884 4.28573 13.6652 5.02234 15.0045 6.36162C16.3393 7.70091 17.1429 9.4777 17.1429 11.3706C17.1429 15.2723 13.8973 18.4464 9.99554 18.4464Z" fill="white"/>
</svg>
